<mxfile host="app.diagrams.net" modified="2024-05-07T19:01:14.013Z" agent="Mozilla/5.0 (Windows NT 10.0; Win64; x64) AppleWebKit/537.36 (KHTML, like Gecko) Chrome/124.0.0.0 Safari/537.36" etag="4P_VYfBDwjY_aqq0OQdJ" version="24.3.1" type="github">
  <diagram name="Page-1" id="822b0af5-4adb-64df-f703-e8dfc1f81529">
    <mxGraphModel dx="1982" dy="1146" grid="1" gridSize="10" guides="1" tooltips="1" connect="1" arrows="1" fold="1" page="1" pageScale="1" pageWidth="1100" pageHeight="850" background="none" math="0" shadow="0">
      <root>
        <mxCell id="0" />
        <mxCell id="1" parent="0" />
        <mxCell id="Aqv4vu8953xIUPXTBQyh-5" value="" style="rounded=1;whiteSpace=wrap;html=1;labelBackgroundColor=#AB8282;" vertex="1" parent="1">
          <mxGeometry x="200" y="80" width="570" height="460" as="geometry" />
        </mxCell>
        <mxCell id="Aqv4vu8953xIUPXTBQyh-6" value="" style="whiteSpace=wrap;html=1;aspect=fixed;rounded=1;" vertex="1" parent="1">
          <mxGeometry x="250.5" y="190" width="170" height="170" as="geometry" />
        </mxCell>
        <mxCell id="Aqv4vu8953xIUPXTBQyh-1" value="Test-FW01" style="image;aspect=fixed;html=1;points=[];align=center;fontSize=12;image=img/lib/azure2/networking/Firewalls.svg;" vertex="1" parent="1">
          <mxGeometry x="300" y="230" width="71" height="60" as="geometry" />
        </mxCell>
        <mxCell id="Aqv4vu8953xIUPXTBQyh-2" value="" style="image;aspect=fixed;html=1;points=[];align=center;fontSize=12;image=img/lib/azure2/networking/Subnet.svg;" vertex="1" parent="1">
          <mxGeometry x="580" y="160" width="68" height="40.72" as="geometry" />
        </mxCell>
        <mxCell id="Aqv4vu8953xIUPXTBQyh-3" value="" style="image;aspect=fixed;html=1;points=[];align=center;fontSize=12;image=img/lib/azure2/networking/Virtual_Networks.svg;" vertex="1" parent="1">
          <mxGeometry x="580" y="100" width="67" height="40" as="geometry" />
        </mxCell>
        <mxCell id="Aqv4vu8953xIUPXTBQyh-4" value="" style="image;aspect=fixed;html=1;points=[];align=center;fontSize=12;image=img/lib/azure2/networking/Subnet.svg;" vertex="1" parent="1">
          <mxGeometry x="490" y="440" width="68" height="40.72" as="geometry" />
        </mxCell>
        <mxCell id="Aqv4vu8953xIUPXTBQyh-10" value="&lt;br&gt;&lt;span style=&quot;color: rgb(0, 0, 0); font-family: Helvetica; font-size: 12px; font-style: normal; font-variant-ligatures: normal; font-variant-caps: normal; font-weight: 400; letter-spacing: normal; orphans: 2; text-align: center; text-indent: 0px; text-transform: none; widows: 2; word-spacing: 0px; -webkit-text-stroke-width: 0px; white-space: normal; background-color: rgb(251, 251, 251); text-decoration-thickness: initial; text-decoration-style: initial; text-decoration-color: initial; display: inline !important; float: none;&quot;&gt;Firewall subnet:&lt;/span&gt;&lt;div style=&quot;forced-color-adjust: none; color: rgb(0, 0, 0); font-family: Helvetica; font-size: 12px; font-style: normal; font-variant-ligatures: normal; font-variant-caps: normal; font-weight: 400; letter-spacing: normal; orphans: 2; text-align: center; text-indent: 0px; text-transform: none; widows: 2; word-spacing: 0px; -webkit-text-stroke-width: 0px; white-space: normal; background-color: rgb(251, 251, 251); text-decoration-thickness: initial; text-decoration-style: initial; text-decoration-color: initial;&quot;&gt;FW-SN&lt;/div&gt;&lt;div&gt;&lt;br/&gt;&lt;/div&gt;" style="text;html=1;align=center;verticalAlign=middle;whiteSpace=wrap;rounded=0;" vertex="1" parent="1">
          <mxGeometry x="299" y="199.72" width="91" height="30" as="geometry" />
        </mxCell>
        <mxCell id="Aqv4vu8953xIUPXTBQyh-11" value="" style="image;aspect=fixed;html=1;points=[];align=center;fontSize=12;image=img/lib/azure2/networking/CDN_Profiles.svg;" vertex="1" parent="1">
          <mxGeometry x="30" y="128.24" width="88" height="51.76" as="geometry" />
        </mxCell>
      </root>
    </mxGraphModel>
  </diagram>
</mxfile>
